<svg fill="none" height="13" width="13" viewBox="0 0 23 28" xmlns="http://www.w3.org/2000/svg">
	<path fill="#6e6e6e" clip-rule="evenodd" d="M8.03843 2.3056L6.72462 0L4.98694 0.990189L5.34394 1.61668C4.26883 2.36983 3.31695 3.28836 2.52452 4.33995C1.5337 5.65482 0.81156 7.15196 0.399336 8.74591C-0.0128868 10.3399 -0.107123 11.9994 0.122009 13.6298C0.351144 15.2601 0.89916 16.8294 1.73477 18.248C2.57037 19.6666 3.67721 20.9067 4.99208 21.8975C6.30694 22.8883 7.80409 23.6105 9.39804 24.0227C9.81062 24.1294 10.2276 24.2148 10.6473 24.2788V25.8849H8.53424V27.9979H14.8734V25.8849H12.7604V24.42C13.2685 24.411 13.7766 24.371 14.2819 24.3C15.5812 24.1174 16.8417 23.7323 18.018 23.1605L18.2543 23.5619L19.9778 22.5472L18.7469 20.4563L17.885 20.964C16.6928 21.6663 15.3738 22.1269 14.0036 22.3195C12.6333 22.5121 11.2385 22.4329 9.89881 22.0864C8.55913 21.7399 7.30082 21.133 6.19571 20.3002C5.0906 19.4675 4.16033 18.4252 3.45803 17.2329C2.75572 16.0406 2.29513 14.7217 2.10255 13.3514C1.90997 11.9811 1.98917 10.5863 2.33563 9.24667C2.68209 7.907 3.28903 6.64868 4.12179 5.54358C4.95455 4.43846 5.99683 3.50819 7.18911 2.80589L8.03843 2.3056ZM8.88107 3.85176C8.64155 3.97443 8.40824 4.10747 8.1817 4.25029C8.05425 7.22546 8.70429 9.90482 9.72087 12.2048L12.1811 10.6908C12.044 10.3285 11.9693 9.93732 11.9693 9.52931C11.9693 8.7587 12.236 8.04814 12.6854 7.47873C11.6652 6.15945 10.4121 4.91966 8.88107 3.85176ZM10.6243 13.9971L13.4229 12.2749C14.0027 12.6805 14.716 12.9196 15.4872 12.9196C15.5304 12.9196 15.5735 12.9189 15.6164 12.9174C16.6297 15.7852 16.882 18.465 16.7896 20.1052C16.6037 20.1913 16.4144 20.2713 16.2219 20.3449C14.6836 19.2863 12.376 17.0806 10.6243 13.9971ZM18.7944 18.8321C18.7271 17.0649 18.3746 14.7447 17.5181 12.2979C18.4178 11.6838 19.0051 10.6727 19.0051 9.52931C19.0051 9.30707 18.9829 9.08981 18.9405 8.87949L20.9639 7.63435C21.6456 8.90508 22.0323 10.3577 22.0323 11.9007C22.0323 14.6845 20.7736 17.1743 18.7944 18.8321ZM19.8275 5.98529L17.9706 7.12802C17.3343 6.51682 16.4565 6.13898 15.4872 6.13898C15.0806 6.13898 14.6901 6.20546 14.3268 6.32774C13.4376 5.16707 12.3853 4.05884 11.1441 3.05299C11.7415 2.92867 12.3606 2.86331 12.9949 2.86331C15.7239 2.86331 18.1704 4.07294 19.8275 5.98529ZM8.00165 13.2628C7.02086 11.1211 6.32345 8.66794 6.18912 5.95444C4.79952 7.54359 3.95752 9.62381 3.95752 11.9007C3.95752 13.1167 4.19769 14.2767 4.63319 15.3356L8.00165 13.2628ZM5.59602 17.0915L8.91963 15.0462C10.3778 17.5899 12.1778 19.5822 13.7051 20.9106C13.4708 20.9288 13.2339 20.938 12.9949 20.938C9.93545 20.938 7.23109 19.4178 5.59602 17.0915Z" fill-rule="evenodd"/>
</svg>